<svg xmlns="http://www.w3.org/2000/svg" version="1.1" xmlns:xlink="http://www.w3.org/1999/xlink" xmlns:svgjs="http://svgjs.dev/svgjs" width="2000" height="616" viewBox="0 0 2000 616"><g transform="matrix(1,0,0,1,-235.10048976710073,-182.89198592599737)"><svg viewBox="0 0 448 138" data-background-color="#333333" preserveAspectRatio="xMidYMid meet" height="616" width="2000" xmlns="http://www.w3.org/2000/svg" xmlns:xlink="http://www.w3.org/1999/xlink"><g id="tight-bounds" transform="matrix(1,0,0,1,52.662509707830566,40.97255528861629)"><svg viewBox="0 0 395.52 96.79929664670367" height="96.79929664670367" width="395.52"><g><svg viewBox="0 0 672.8779140690187 164.67968449378571" height="96.79929664670367" width="395.52"><g transform="matrix(1,0,0,1,277.35791406901876,2.2487248333931404)"><svg viewBox="0 0 395.52000000000004 160.18223482699943" height="160.18223482699943" width="395.52000000000004"><g id="textblocktransform"><svg viewBox="0 0 395.52000000000004 160.18223482699943" height="160.18223482699943" width="395.52000000000004" id="textblock"><g><svg viewBox="0 0 395.52000000000004 160.18223482699943" height="160.18223482699943" width="395.52000000000004"><g transform="matrix(1,0,0,1,0,0)"><svg width="395.52000000000004" viewBox="2.95 -35.1 88.14999999999999 35.7" height="160.18223482699943" data-palette-color="#ffffff"><path d="M13.85-35.1L13.85-35.1Q16.3-35.05 18.8-34.85 21.3-34.65 23.8-34.2L23.8-34.2 23.55-31.8Q21.35-31.95 18.85-32.05 16.35-32.15 14-32.15L14-32.15Q11.95-32.15 10.48-32 9-31.85 8.05-31.3 7.1-30.75 6.68-29.5 6.25-28.25 6.25-26L6.25-26Q6.25-22.8 7.35-21.48 8.45-20.15 11-19.65L11-19.65 18.25-18.15Q22.15-17.35 23.68-15.1 25.2-12.85 25.2-8.7L25.2-8.7Q25.2-5.65 24.5-3.83 23.8-2 22.43-1.05 21.05-0.1 18.95 0.25 16.85 0.6 14 0.6L14 0.6Q12.2 0.6 9.55 0.45 6.9 0.3 3.5-0.25L3.5-0.25 3.75-2.65Q6.3-2.55 8.03-2.48 9.75-2.4 11.15-2.38 12.55-2.35 14.1-2.35L14.1-2.35Q17-2.4 18.7-2.85 20.4-3.3 21.13-4.65 21.85-6 21.85-8.75L21.85-8.75Q21.85-11 21.38-12.28 20.9-13.55 19.83-14.23 18.75-14.9 17.05-15.2L17.05-15.2 9.7-16.75Q6-17.5 4.48-19.78 2.95-22.05 2.95-26.05L2.95-26.05Q2.95-29.1 3.63-30.93 4.3-32.75 5.63-33.65 6.95-34.55 9-34.83 11.05-35.1 13.85-35.1ZM55-34.5L58.25-34.5 58.25-1.4Q58.25 0 56.9 0L56.9 0 53.4 0Q52.8 0 52.42-0.28 52.05-0.55 51.8-1.1L51.8-1.1 38.6-27.3Q38.15-28.25 37.6-29.38 37.05-30.5 36.7-31.45L36.7-31.45 35.75-31.45Q35.8-30.45 35.82-29.4 35.85-28.35 35.85-27.3L35.85-27.3 35.85 0 32.6 0 32.6-33.1Q32.6-34.5 34-34.5L34-34.5 37.35-34.5Q37.95-34.5 38.32-34.23 38.7-33.95 38.95-33.4L38.95-33.4 51.75-7.8Q52.3-6.75 52.9-5.55 53.5-4.35 54.05-3.15L54.05-3.15 55.1-3.15Q55.1-4.4 55.05-5.65 55-6.9 55-8.1L55-8.1 55-34.5ZM79.15-34.95L79.15-34.95Q83-34.95 85.35-34.08 87.7-33.2 88.77-31.08 89.85-28.95 89.85-25.05L89.85-25.05Q89.85-22.15 89.2-20.28 88.55-18.4 87.15-17.4 85.75-16.4 83.5-16.05L83.5-16.05 83.5-15.85Q84.35-15.6 85.15-14.95 85.95-14.3 86.6-13.3 87.25-12.3 87.6-10.95L87.6-10.95 91.1 0 87.6 0 84.3-10.85Q83.6-13 82.37-13.9 81.15-14.8 79.3-14.8L79.3-14.8Q76.35-14.8 74.07-14.83 71.8-14.85 70.3-14.9 68.8-14.95 68.05-15L68.05-15 68.2-17.65 79.05-17.65Q81.85-17.7 83.47-18.32 85.1-18.95 85.8-20.53 86.5-22.1 86.5-24.9L86.5-24.9Q86.5-27.75 85.8-29.3 85.1-30.85 83.47-31.45 81.85-32.05 79.05-32.05L79.05-32.05Q75.05-32.05 72.15-32.02 69.25-32 68.25-31.95L68.25-31.95 67.55-34.5Q69.4-34.7 71-34.8 72.6-34.9 74.52-34.93 76.45-34.95 79.15-34.95ZM67.55-34.5L70.8-34.5 70.8 0 67.55 0 67.55-34.5Z" opacity="1" transform="matrix(1,0,0,1,0,0)" fill="#ffffff" class="wordmark-text-0" data-fill-palette-color="primary" id="text-0"></path></svg></g></svg></g></svg></g></svg></g><g><svg viewBox="0 0 239.5427328 164.67968449378571" height="164.67968449378571" width="239.5427328"><g><svg xmlns="http://www.w3.org/2000/svg" data-name="Layer 1" viewBox="17.94207158674301 27.97258941710717 64.04223663854614 44.027448466648465" x="0" y="0" height="164.67968449378571" width="239.5427328" class="icon-icon-0" data-fill-palette-color="accent" id="icon-0"><path d="M74.93 47.44A13.88 13.88 0 0 0 75 46a15 15 0 0 0-30 0v0.15A13 13 0 0 0 47 72H69a13 13 0 0 0 5.93-24.56ZM69 68H47a9 9 0 0 1 0-18h0.17a2 2 0 0 0 2-2.31A10.87 10.87 0 0 1 49 46a11 11 0 0 1 22 0 11.38 11.38 0 0 1-0.23 2.25 2 2 0 0 0 1.28 2.29A9 9 0 0 1 69 68ZM30.39 55.44A16.88 16.88 0 0 0 30 59c0 0.16 0 0.32 0 0.48A16 16 0 1 1 45.88 33.32a19.35 19.35 0 0 0-2.41 3.33A12 12 0 1 0 30.39 55.44Z" fill="#ffffff" data-fill-palette-color="accent"></path></svg></g></svg></g></svg></g><defs></defs></svg><rect width="395.52" height="96.79929664670367" fill="none" stroke="none" visibility="hidden"></rect></g></svg></g></svg>